<svg width="21" height="21" viewBox="0 0 21 21" fill="none" xmlns="http://www.w3.org/2000/svg">
<path d="M10.5 19.8317C10.201 19.8317 9.91278 19.7234 9.68816 19.5266C8.83981 18.7848 8.0219 18.0877 7.30029 17.4728L7.2966 17.4696C5.18094 15.6667 3.35398 14.1097 2.08282 12.5759C0.661856 10.8613 0 9.23557 0 7.45956C0 5.73402 0.591681 4.1421 1.66594 2.97684C2.75301 1.7978 4.24463 1.14844 5.86651 1.14844C7.07871 1.14844 8.18885 1.53168 9.16601 2.28742C9.65916 2.6689 10.1062 3.13577 10.5 3.68035C10.894 3.13577 11.3408 2.6689 11.8341 2.28742C12.8113 1.53168 13.9214 1.14844 15.1336 1.14844C16.7553 1.14844 18.2471 1.7978 19.3342 2.97684C20.4084 4.1421 21 5.73402 21 7.45956C21 9.23557 20.3383 10.8613 18.9173 12.5758C17.6461 14.1097 15.8193 15.6665 13.704 17.4693C12.9811 18.0852 12.1619 18.7834 11.3116 19.527C11.0872 19.7234 10.7988 19.8317 10.5 19.8317ZM5.86651 2.37859C4.5923 2.37859 3.42175 2.88712 2.5702 3.81061C1.70599 4.74804 1.22999 6.04388 1.22999 7.45956C1.22999 8.95326 1.78514 10.2892 3.02986 11.791C4.23293 13.2428 6.0224 14.7677 8.09432 16.5335L8.09817 16.5367C8.82251 17.154 9.64362 17.8538 10.4982 18.6011C11.3579 17.8524 12.1803 17.1514 12.9061 16.5331C14.9779 14.7674 16.7672 13.2428 17.9703 11.791C19.2148 10.2892 19.77 8.95326 19.77 7.45956C19.77 6.04388 19.294 4.74804 18.4298 3.81061C17.5784 2.88712 16.4077 2.37859 15.1336 2.37859C14.2002 2.37859 13.3432 2.67531 12.5865 3.26042C11.9121 3.78209 11.4424 4.44154 11.167 4.90297C11.0253 5.14025 10.776 5.28188 10.5 5.28188C10.2239 5.28188 9.97463 5.14025 9.833 4.90297C9.55774 4.44154 9.08799 3.78209 8.41347 3.26042C7.65677 2.67531 6.79977 2.37859 5.86651 2.37859Z" fill="black"/>
</svg>
