<svg width="13" height="13" viewBox="0 0 13 13" fill="none" xmlns="http://www.w3.org/2000/svg">
<path d="M9.41234 0H3.58743C1.60932 0 0 1.6094 0 3.58751V9.41241C0 11.3906 1.60932 12.9999 3.58743 12.9999H9.41234C11.3906 12.9999 12.9999 11.3905 12.9999 9.41241V3.58751C13 1.6094 11.3906 0 9.41234 0ZM11.8466 9.41241C11.8466 10.7546 10.7546 11.8465 9.41241 11.8465H3.58743C2.24532 11.8466 1.15342 10.7546 1.15342 9.41241V3.58751C1.15342 2.24539 2.24532 1.15342 3.58743 1.15342H9.41234C10.7545 1.15342 11.8465 2.24539 11.8465 3.58751V9.41241H11.8466Z" fill="#009B77"/>
<path d="M6.49996 3.15021C4.65288 3.15021 3.15021 4.65288 3.15021 6.49996C3.15021 8.34696 4.65288 9.84956 6.49996 9.84956C8.34704 9.84956 9.84971 8.34696 9.84971 6.49996C9.84971 4.65288 8.34704 3.15021 6.49996 3.15021ZM6.49996 8.69606C5.28895 8.69606 4.30362 7.71089 4.30362 6.49988C4.30362 5.28879 5.28887 4.30355 6.49996 4.30355C7.71105 4.30355 8.6963 5.28879 8.6963 6.49988C8.6963 7.71089 7.71097 8.69606 6.49996 8.69606Z" fill="#009B77"/>
<path d="M9.99024 2.17236C9.76802 2.17236 9.54972 2.26233 9.39278 2.41996C9.23507 2.57683 9.14441 2.79521 9.14441 3.0182C9.14441 3.2405 9.23514 3.45881 9.39278 3.61644C9.54964 3.7733 9.76802 3.86404 9.99024 3.86404C10.2132 3.86404 10.4308 3.7733 10.5885 3.61644C10.7461 3.45881 10.8361 3.24043 10.8361 3.0182C10.8361 2.79521 10.7461 2.57683 10.5885 2.41996C10.4316 2.26233 10.2132 2.17236 9.99024 2.17236Z" fill="#009B77"/>
</svg>
