<svg width="8" height="13" viewBox="0 0 8 13" fill="none" xmlns="http://www.w3.org/2000/svg">
<path d="M3.26319 9.1567C2.25538 9.05159 1.34669 8.80339 0.568716 8.19492C0.472183 8.11922 0.372519 8.04624 0.284428 7.96169C-0.0560907 7.63465 -0.0904013 7.26009 0.179046 6.8741C0.409553 6.54379 0.7965 6.45543 1.1987 6.64509C1.27658 6.68185 1.35078 6.72773 1.42185 6.77702C2.87175 7.77325 4.86353 7.80075 6.31887 6.82181C6.46306 6.71126 6.61718 6.62112 6.79582 6.57511C7.14314 6.48592 7.46705 6.6135 7.65344 6.91739C7.86639 7.26445 7.86366 7.6032 7.6013 7.87264C7.19883 8.28573 6.7148 8.58459 6.177 8.79317C5.66847 8.99032 5.11147 9.08958 4.56018 9.15548C4.64337 9.24602 4.68258 9.29054 4.73459 9.34282C5.48316 10.0949 6.235 10.8439 6.98112 11.5983C7.23532 11.8554 7.28842 12.1741 7.14845 12.4731C6.99542 12.7999 6.65285 13.0149 6.31697 12.9919C6.10416 12.9772 5.93819 12.8712 5.79073 12.7227C5.22583 12.1542 4.65031 11.5963 4.09685 11.0171C3.93578 10.8487 3.85831 10.8805 3.71617 11.0268C3.14786 11.6118 2.5703 12.1879 1.98934 12.7607C1.72847 13.0179 1.41804 13.0642 1.11551 12.9172C0.793913 12.7614 0.589275 12.4331 0.605069 12.1032C0.615961 11.88 0.7257 11.7096 0.878873 11.5567C1.61968 10.817 2.35845 10.0753 3.09749 9.33438C3.14637 9.28509 3.19198 9.23281 3.26319 9.1567Z" fill="#009B77"/>
<path d="M3.87725 6.58015C2.07935 6.57403 0.605081 5.08356 0.615565 3.2828C0.625912 1.46216 2.10113 -0.00502473 3.91673 1.2934e-05C5.73601 0.00491444 7.19625 1.4932 7.18713 3.33277C7.17787 5.12985 5.69339 6.58642 3.87725 6.58015ZM5.51122 3.28716C5.50809 2.39304 4.79601 1.68123 3.90366 1.68041C3.00382 1.67946 2.28535 2.4042 2.29229 3.30649C2.29896 4.1972 3.01717 4.90397 3.91197 4.90071C4.80404 4.89757 5.51421 4.18114 5.51122 3.28716Z" fill="#009B77"/>
</svg>
