<svg width="16" height="16" viewBox="0 0 16 16" fill="none" xmlns="http://www.w3.org/2000/svg">
<path d="M15.125 14.225L11.4438 10.5437C12.3563 9.43125 12.9062 8.00625 12.9062 6.45312C12.9062 2.89062 10.0156 0 6.45312 0C2.8875 0 0 2.89062 0 6.45312C0 10.0156 2.8875 12.9062 6.45312 12.9062C8.00625 12.9062 9.42812 12.3594 10.5406 11.4469L14.2219 15.125C14.4719 15.375 14.875 15.375 15.125 15.125C15.375 14.8781 15.375 14.4719 15.125 14.225ZM6.45312 11.6219C3.6 11.6219 1.28125 9.30313 1.28125 6.45312C1.28125 3.60313 3.6 1.28125 6.45312 1.28125C9.30313 1.28125 11.625 3.60313 11.625 6.45312C11.625 9.30313 9.30313 11.6219 6.45312 11.6219Z" fill="black"/>
</svg>
