<svg width="20" height="20" viewBox="0 0 20 20" fill="none" xmlns="http://www.w3.org/2000/svg">
<path d="M18 17.2883L16.8548 4.39264C16.8303 4.10634 16.589 3.88957 16.3067 3.88957H13.9509C13.9182 1.73824 12.1595 0 10 0C7.84049 0 6.0818 1.73824 6.04908 3.88957H3.69325C3.40695 3.88957 3.16973 4.10634 3.1452 4.39264L2 17.2883C2 17.3047 1.99591 17.3211 1.99591 17.3374C1.99591 18.8057 3.34151 20 4.99796 20H15.002C16.6585 20 18.0041 18.8057 18.0041 17.3374C18.0041 17.3211 18.0041 17.3047 18 17.2883ZM10 1.10429C11.5501 1.10429 12.8139 2.34765 12.8466 3.88957H7.15337C7.18609 2.34765 8.4499 1.10429 10 1.10429ZM15.002 18.8957H4.99796C3.9591 18.8957 3.11657 18.2086 3.10021 17.362L4.19632 4.99795H6.04499V6.67485C6.04499 6.9816 6.29039 7.22699 6.59714 7.22699C6.90389 7.22699 7.14928 6.9816 7.14928 6.67485V4.99795H12.8466V6.67485C12.8466 6.9816 13.092 7.22699 13.3988 7.22699C13.7055 7.22699 13.9509 6.9816 13.9509 6.67485V4.99795H15.7996L16.8998 17.362C16.8834 18.2086 16.0368 18.8957 15.002 18.8957Z" fill="black"/>
</svg>
