<svg width="14" height="8" viewBox="0 0 14 8" fill="none" xmlns="http://www.w3.org/2000/svg">
<path d="M13.9258 7.21369C13.9088 7.17716 13.893 7.14685 13.8783 7.12257C13.6354 6.6851 13.1712 6.14814 12.4861 5.51153L12.4716 5.49696L12.4643 5.48981L12.457 5.48248H12.4497C12.1387 5.18604 11.9418 4.98673 11.8593 4.88468C11.7084 4.69029 11.6746 4.49352 11.7571 4.29415C11.8154 4.14352 12.0342 3.82541 12.4131 3.33938C12.6125 3.0818 12.7703 2.87536 12.8869 2.71983C13.7276 1.60209 14.0921 0.887846 13.9803 0.576806L13.9369 0.50412C13.9077 0.46036 13.8324 0.420328 13.711 0.383819C13.5894 0.347387 13.434 0.341362 13.2444 0.365641L11.1452 0.380143C11.1111 0.368092 11.0626 0.369215 10.9993 0.383819C10.9361 0.398423 10.9045 0.40575 10.9045 0.40575L10.868 0.424004L10.839 0.445935C10.8147 0.460437 10.788 0.485942 10.7588 0.5224C10.7297 0.55873 10.7055 0.601366 10.6861 0.649951C10.4575 1.23795 10.1977 1.78464 9.90602 2.28999C9.7262 2.59133 9.56107 2.85249 9.41026 3.07361C9.25966 3.29465 9.13331 3.45751 9.03134 3.56191C8.92921 3.6664 8.83705 3.75012 8.75428 3.81336C8.67163 3.87662 8.60855 3.90336 8.56486 3.89358C8.52108 3.8838 8.47985 3.8741 8.44081 3.86439C8.37282 3.82064 8.31814 3.76112 8.2769 3.68581C8.23549 3.61049 8.20761 3.5157 8.19304 3.4015C8.17853 3.28722 8.16996 3.18893 8.1675 3.10629C8.16523 3.02375 8.16628 2.90699 8.17121 2.75636C8.17626 2.60565 8.17853 2.50369 8.17853 2.45022C8.17853 2.26553 8.18213 2.06509 8.18936 1.84885C8.19671 1.6326 8.20266 1.46127 8.20764 1.33504C8.21259 1.20869 8.21489 1.07501 8.21489 0.934083C8.21489 0.793153 8.20631 0.68263 8.18936 0.602413C8.17261 0.522298 8.1469 0.444531 8.11302 0.369139C8.07894 0.293823 8.02905 0.235562 7.96359 0.194203C7.898 0.152894 7.81646 0.120112 7.71941 0.0957561C7.46184 0.0374695 7.13384 0.00593905 6.73528 0.00103715C5.83147 -0.00866452 5.25072 0.0496986 4.99317 0.17605C4.89112 0.229435 4.79878 0.302376 4.71621 0.394644C4.62872 0.501592 4.61651 0.559956 4.67968 0.569555C4.97129 0.613238 5.17773 0.717735 5.29923 0.882944L5.34302 0.970489C5.37707 1.03365 5.41108 1.14548 5.44511 1.30581C5.47909 1.46614 5.50103 1.6435 5.51068 1.83779C5.53493 2.19259 5.53493 2.49631 5.51068 2.74896C5.48635 3.00171 5.46337 3.19848 5.44144 3.33941C5.41951 3.48034 5.38672 3.59454 5.34302 3.68198C5.29923 3.76945 5.2701 3.82291 5.2555 3.84231C5.24092 3.86171 5.22877 3.87394 5.21912 3.87874C5.15595 3.90295 5.09026 3.91528 5.02227 3.91528C4.95418 3.91528 4.87162 3.88122 4.77445 3.81316C4.6773 3.74509 4.57648 3.6516 4.47198 3.53252C4.36749 3.41342 4.24964 3.24699 4.11838 3.03319C3.98723 2.8194 3.85115 2.56672 3.71023 2.27516L3.59363 2.06371C3.52074 1.92769 3.42117 1.72962 3.29481 1.46969C3.16839 1.20966 3.05664 0.958132 2.95949 0.715156C2.92066 0.61311 2.86232 0.535421 2.78458 0.481959L2.7481 0.460028C2.72385 0.440625 2.68491 0.420022 2.6315 0.398065C2.57801 0.376134 2.5222 0.360407 2.46384 0.350731L0.466599 0.365233C0.262507 0.365233 0.124028 0.411469 0.0511125 0.503813L0.0219309 0.547496C0.00735285 0.571827 0 0.610685 0 0.664172C0 0.717633 0.014578 0.783247 0.0437596 0.860937C0.33532 1.54618 0.652386 2.20704 0.994957 2.84363C1.33753 3.48021 1.63522 3.99299 1.88784 4.38152C2.14052 4.77033 2.39807 5.13728 2.6605 5.4822C2.92293 5.82725 3.09665 6.04837 3.18164 6.14551C3.26673 6.24284 3.33357 6.3156 3.38216 6.36418L3.56442 6.53909C3.68104 6.65574 3.8523 6.79545 4.07828 6.95821C4.3043 7.12107 4.55453 7.2814 4.82908 7.43946C5.10369 7.59727 5.42316 7.72604 5.78766 7.82564C6.15211 7.92534 6.50683 7.96534 6.85188 7.94604H7.69016C7.86017 7.93136 7.98897 7.8779 8.07651 7.78563L8.10552 7.7491C8.12502 7.72009 8.14328 7.67503 8.16013 7.6144C8.17718 7.55366 8.18566 7.48674 8.18566 7.41396C8.18068 7.20504 8.19658 7.01675 8.23294 6.84911C8.26927 6.68153 8.31068 6.55518 8.35699 6.47009C8.40328 6.38507 8.45552 6.31333 8.51365 6.25517C8.57191 6.19688 8.61342 6.16157 8.63778 6.14942C8.66198 6.13719 8.68131 6.12889 8.69589 6.12391C8.81251 6.08506 8.94977 6.12269 9.10785 6.23699C9.26581 6.35119 9.41396 6.49219 9.55255 6.65978C9.69105 6.82751 9.85746 7.0157 10.0518 7.22462C10.2463 7.43361 10.4163 7.58897 10.562 7.69117L10.7078 7.77864C10.8051 7.837 10.9314 7.89046 11.087 7.93905C11.2422 7.98761 11.3782 7.99976 11.495 7.97548L13.361 7.94637C13.5456 7.94637 13.6892 7.91581 13.7911 7.85518C13.8931 7.79444 13.9538 7.72752 13.9733 7.65474C13.9928 7.58187 13.9939 7.4992 13.977 7.40678C13.9597 7.31459 13.9427 7.25012 13.9258 7.21369Z" fill="#009B77"/>
</svg>
