<svg width="13" height="10" viewBox="0 0 13 10" fill="none" xmlns="http://www.w3.org/2000/svg">
<path d="M12.4933 0.785368C12.024 0.227542 11.1576 0 9.50304 0H3.49683C1.80436 0 0.923294 0.24222 0.455797 0.83611C0 1.41516 0 2.26833 0 3.44915V5.69979C0 7.98741 0.5408 9.1489 3.49683 9.1489H9.50308C10.9379 9.1489 11.733 8.94811 12.2474 8.45583C12.7749 7.95101 13 7.12677 13 5.69979V3.44915C13 2.20388 12.9647 1.34567 12.4933 0.785368ZM8.34604 4.88519L5.61864 6.31062C5.55767 6.34249 5.49099 6.3583 5.4244 6.3583C5.349 6.3583 5.27376 6.338 5.20713 6.29766C5.08166 6.22163 5.00504 6.08564 5.00504 5.93895V3.09723C5.00504 2.95079 5.08145 2.81492 5.20667 2.73885C5.33193 2.66278 5.48772 2.65758 5.61768 2.72509L8.34508 4.14134C8.48384 4.21338 8.57098 4.35664 8.57119 4.51293C8.57136 4.66935 8.4846 4.81281 8.34604 4.88519Z" fill="#009B77"/>
</svg>
